#!OML:ASF E:\Steps\Project 1\Capture day 1\Session 2\Subject.ASF
:FULLY-SPECIFIED
:DEGREES
109
root 9.50564 16.3268 9.55141 -151.283 -0.898153 178.575
lowerback -28.8022 -1.69253 -5.78141
upperback -3.41872 -1.29454 -0.685998
thorax 12.1906 -1.27003 1.96972
lowerneck -1.49176 -0.0323967 -4.31909
upperneck 6.98147 0.0307277 17.6157
head 2.27372 0.845181 6.11145
rclavicle 5.96354e-016 -3.93594e-014
rhumerus -38.8251 -25.2345 -73.9882
rradius 25.7546
rwrist 4.50537
rhand -7.20935 -50.4604
rfingers 7.12502
rthumb 18.6695 -439.584
lclavicle 5.96354e-016 -3.93594e-014
lhumerus -32.4649 9.98775 78.8826
lradius 19.5233
lwrist -9.19939
lhand -20.5333 -11.3527
lfingers 7.12502
lthumb 5.82493 18.5472
rfemur -25.2211 8.58516 17.2347
rtibia 6.46511
rfoot -18.9843 -5.43871
rtoes -29.7839
lfemur -27.119 -10.4432 -18.1596
ltibia 8.03959
lfoot -7.87574 3.20528
ltoes -40.7234
110
root 9.50575 16.3255 9.55168 -151.322 -0.874722 178.52
lowerback -28.9635 -1.75255 -5.89088
upperback -3.27708 -1.30383 -0.652031
thorax 12.4445 -1.27915 2.06303
lowerneck -1.45043 0.0403174 -4.35605
upperneck 6.9787 0.137021 17.7018
head 2.25303 0.900624 6.14703
rclavicle -2.88238e-015 -3.18055e-015
rhumerus -38.4388 -25.1132 -74.1881
rradius 25.7971
rwrist 4.46322
rhand -7.17143 -50.2707
rfingers 7.12502
rthumb 18.7059 -439.391
lclavicle -2.88238e-015 -3.18055e-015
lhumerus -32.1521 9.8626 79.1349
lradius 19.7005
lwrist -8.95558
lhand -20.6468 -11.1576
lfingers 7.12502
lthumb 5.71536 18.7454
rfemur -25.1705 8.48777 17.205
rtibia 6.46044
rfoot -18.9478 -5.45978
rtoes -30.1111
lfemur -27.0619 -10.5024 -18.2315
ltibia 8.00414
lfoot -7.78736 3.27091
ltoes -41.1642
111
root 9.50735 16.3243 9.55167 -151.376 -0.837859 178.456
lowerback -28.6983 -1.74426 -5.94601
upperback -3.3802 -1.30511 -0.698125
thorax 12.1849 -1.27908 2.04853
lowerneck -1.51675 0.00810074 -4.42653
upperneck 6.97412 0.0997102 17.8918
head 2.26667 0.895121 6.22018
rclavicle 1.49089e-015 -1.11319e-014
rhumerus -38.5121 -24.8237 -74.3938
rradius 25.9736
rwrist 4.23398
rhand -7.41297 -50.365
rfingers 7.12502
rthumb 18.4736 -439.508
lclavicle 1.49089e-015 -1.11319e-014
lhumerus -32.2321 9.43024 79.2939
lradius 20.0117
lwrist -8.47747
lhand -20.7125 -10.7597
lfingers 7.12502
lthumb 5.65198 19.1449
rfemur -25.1295 8.4763 17.1518
rtibia 6.49724
rfoot -18.924 -5.46596
rtoes -30.4597
lfemur -26.9911 -10.5115 -18.3287
ltibia 8.00083
lfoot -7.81991 3.2767
ltoes -40.6584
112
root 9.51039 16.3266 9.55445 -151.386 -0.854756 178.466
lowerback -28.9967 -1.77785 -6.06049
upperback -3.14288 -1.25084 -0.651748
thorax 12.6185 -1.25971 2.17992
lowerneck -1.56884 0.0603875 -4.32884
upperneck 6.95762 0.182072 17.9568
head 2.26151 0.947718 6.22584
rclavicle 9.93923e-017 8.34896e-015
rhumerus -38.0628 -24.8777 -74.5993
rradius 26.0764
rwrist 4.03546
rhand -7.68673 -50.3844
rfingers 7.12502
rthumb 18.2102 -439.552
lclavicle 9.93923e-017 8.34896e-015
lhumerus -31.7398 9.10812 79.6805
lradius 20.2567
lwrist -8.12853
lhand -20.8358 -10.0573
lfingers 7.12502
lthumb 5.53291 19.8504
rfemur -25.1509 8.62174 17.1498
rtibia 6.53314
rfoot -18.9341 -5.56144
rtoes -30.7104
lfemur -26.9945 -10.4077 -18.3186
ltibia 7.98682
lfoot -7.80973 3.14657
ltoes -39.9446
113
root 9.5122 16.3276 9.55465 -151.409 -0.902651 178.483
lowerback -28.4175 -1.71501 -5.976
upperback -3.49761 -1.29149 -0.725903
thorax 11.9 -1.27066 2.04726
lowerneck -1.58444 -0.0180701 -4.45772
upperneck 6.96765 0.0828525 18.2086
head 2.27753 0.912877 6.32793
rclavicle 4.07509e-015 -3.97569e-015
rhumerus -38.6314 -24.5658 -74.673
rradius 26.2939
rwrist 3.6778
rhand -7.71969 -50.6775
rfingers 7.12502
rthumb 18.1785 -439.848
lclavicle 4.07509e-015 -3.97569e-015
lhumerus -32.2651 8.64908 79.6734
lradius 20.5802
lwrist -7.79236
lhand -20.7355 -10.2093
lfingers 7.12502
lthumb 5.62973 19.696
rfemur -25.0849 8.64413 17.1928
rtibia 6.4722
rfoot -18.9009 -5.62045
rtoes -30.7242
lfemur -26.958 -10.3621 -18.2977
ltibia 7.94532
lfoot -7.76589 3.0667
ltoes -40.1008
114
root 9.51168 16.3267 9.55079 -151.393 -0.960202 178.526
lowerback -28.3299 -1.69336 -5.88296
upperback -3.59482 -1.31586 -0.740272
thorax 11.7411 -1.27863 1.97117
lowerneck -1.62113 -0.0338372 -4.55394
upperneck 6.96768 0.0676009 18.3825
head 2.2849 0.915227 6.40094
rclavicle 1.33186e-014 -8.74653e-015
rhumerus -38.734 -24.3484 -74.8049
rradius 26.4377
rwrist 3.38044
rhand -7.64585 -50.8582
rfingers 7.12502
rthumb 18.2496 -440.022
lclavicle 1.33186e-014 -8.74653e-015
lhumerus -32.3658 8.46351 79.7427
lradius 20.8053
lwrist -7.62025
lhand -20.4717 -11.2881
lfingers 7.12502
lthumb 5.88437 18.6102
rfemur -25.0138 8.53579 17.2912
rtibia 6.35963
rfoot -18.861 -5.53806
rtoes -30.6059
lfemur -26.9356 -10.4267 -18.2376
ltibia 7.89918
lfoot -7.75601 3.10448
ltoes -40.5464
115
root 9.51217 16.3287 9.55144 -151.361 -0.994979 178.563
lowerback -28.3788 -1.68652 -5.84303
upperback -3.57309 -1.31236 -0.734229
thorax 11.7912 -1.27537 1.95506
lowerneck -1.67923 -0.0337842 -4.60125
upperneck 6.96222 0.0753073 18.5338
head 2.29192 0.930436 6.45876
rclavicle 2.38542e-015 2.78299e-015
rhumerus -38.5787 -24.3657 -74.88
rradius 26.4403
rwrist 3.33709
rhand -7.63063 -50.8703
rfingers 7.12502
rthumb 18.2642 -440.033
lclavicle 2.38542e-015 2.78299e-015
lhumerus -32.2741 8.13036 79.9501
lradius 21.1547
lwrist -7.24343
lhand -20.3739 -11.6228
lfingers 7.12502
lthumb 5.97884 18.2728
rfemur -25.0399 8.51112 17.3458
rtibia 6.34041
rfoot -18.854 -5.52468
rtoes -30.7509
lfemur -26.9736 -10.4447 -18.1769
ltibia 7.90091
lfoot -7.72654 3.11956
ltoes -40.8006
116
root 9.51345 16.3312 9.55435 -151.357 -0.991993 178.567
lowerback -28.3217 -1.70297 -5.87684
upperback -3.58193 -1.32882 -0.720502
thorax 11.7535 -1.28362 1.98553
lowerneck -1.73958 -0.0263892 -4.64468
upperneck 6.95574 0.0936571 18.6938
head 2.29774 0.951716 6.51901
rclavicle 6.26172e-015 2.78299e-015
rhumerus -38.4355 -24.3714 -74.9287
rradius 26.3628
rwrist 3.37287
rhand -7.52748 -50.8452
rfingers 7.12502
rthumb 18.3634 -439.998
lclavicle 6.26172e-015 2.78299e-015
lhumerus -32.2133 7.84472 80.1424
lradius 21.4595
lwrist -6.94272
lhand -20.563 -11.4095
lfingers 7.12502
lthumb 5.79623 18.4912
rfemur -25.0637 8.59407 17.3192
rtibia 6.3526
rfoot -18.905 -5.56885
rtoes -30.5661
lfemur -26.9958 -10.4383 -18.1563
ltibia 7.92534
lfoot -7.71285 3.14562
ltoes -40.9692
117
root 9.51407 16.3322 9.55505 -151.345 -0.990421 178.601
lowerback -28.3212 -1.69311 -5.87168
upperback -3.60408 -1.32324 -0.715753
thorax 11.7268 -1.28177 1.99037
lowerneck -1.74496 -0.0110173 -4.67185
upperneck 6.95112 0.12513 18.8414
head 2.29293 0.977839 6.57226
rclavicle 1.49089e-015 -1.23246e-014
rhumerus -38.399 -24.1132 -75.1084
rradius 26.4708
rwrist 3.19429
rhand -7.41893 -50.8218
rfingers 7.12502
rthumb 18.4679 -439.965
lclavicle 1.49089e-015 -1.23246e-014
lhumerus -32.1027 7.7644 80.2223
lradius 21.5187
lwrist -6.90053
lhand -20.673 -11.3844
lfingers 7.12502
lthumb 5.69009 18.5192
rfemur -25.0853 8.66463 17.3347
rtibia 6.36727
rfoot -18.9708 -5.54602
rtoes -30.0881
lfemur -27.0274 -10.406 -18.1106
ltibia 7.96255
lfoot -7.72827 3.16353
ltoes -41.2238
118
root 9.51528 16.3324 9.55367 -151.358 -1.01132 178.624
lowerback -28.3382 -1.68884 -5.87384
upperback -3.6053 -1.31709 -0.70912
thorax 11.7339 -1.27951 2.00116
lowerneck -1.71167 0.00315415 -4.71378
upperneck 6.94413 0.156273 18.9904
head 2.28059 1.00155 6.62817
rclavicle -4.87022e-015 -2.50469e-014
rhumerus -38.3459 -23.7542 -75.3514
rradius 26.645
rwrist 2.94153
rhand -7.54932 -51.1256
rfingers 7.12502
rthumb 18.3424 -440.281
lclavicle -4.87022e-015 -2.50469e-014
lhumerus -31.9768 7.65673 80.3195
lradius 21.6309
lwrist -6.84995
lhand -20.4986 -11.375
lfingers 7.12502
lthumb 5.85846 18.524
rfemur -25.073 8.65986 17.3839
rtibia 6.38098
rfoot -18.9446 -5.57737
rtoes -30.1306
lfemur -27.0232 -10.3577 -18.0936
ltibia 7.97998
lfoot -7.73362 3.12653
ltoes -41.4285
119
root 9.5165 16.3319 9.55219 -151.371 -1.01545 178.584
lowerback -28.3361 -1.70776 -5.92946
upperback -3.594 -1.32194 -0.715208
thorax 11.747 -1.28389 2.02424
lowerneck -1.72823 0.0107836 -4.76265
upperneck 6.94536 0.176093 19.1479
head 2.28065 1.02228 6.68861
rclavicle -5.96354e-015 6.83819e-014
rhumerus -38.2833 -23.5841 -75.4996
rradius 26.7394
rwrist 2.86438
rhand -7.75206 -51.3693
rfingers 7.12502
rthumb 18.1474 -440.543
lclavicle -5.96354e-015 6.83819e-014
lhumerus -31.927 7.35157 80.5078
lradius 21.9777
lwrist -6.7437
lhand -20.5722 -11.439
lfingers 7.12502
lthumb 5.78743 18.4619
rfemur -25.0456 8.65709 17.3533
rtibia 6.35905
rfoot -18.8648 -5.67719
rtoes -30.5527
lfemur -27.0027 -10.3952 -18.1326
ltibia 7.94647
lfoot -7.7573 3.12248
ltoes -40.9347
120
root 9.5169 16.3312 9.55196 -151.372 -1.00012 178.545
lowerback -28.4498 -1.73064 -6.0208
upperback -3.50219 -1.30018 -0.695108
thorax 11.9134 -1.27796 2.10442
lowerneck -1.78257 0.0413509 -4.80149
upperneck 6.94593 0.226612 19.2843
head 2.28332 1.05861 6.74139
rclavicle -3.97569e-016 -9.93923e-015
rhumerus -38.0542 -23.5089 -75.6001
rradius 26.7678
rwrist 2.82171
rhand -7.70592 -51.5456
rfingers 7.12502
rthumb 18.1918 -440.715
lclavicle -3.97569e-016 -9.93923e-015
lhumerus -31.7504 7.03137 80.7861
lradius 22.2642
lwrist -6.63899
lhand -20.9551 -11.4656
lfingers 7.12502
lthumb 5.41774 18.4451
rfemur -25.021 8.72238 17.2804
rtibia 6.31938
rfoot -18.8592 -5.71556
rtoes -30.6343
lfemur -27.0145 -10.4287 -18.1713
ltibia 7.97064
lfoot -7.79995 3.13863
ltoes -40.7408
121
root 9.51683 16.331 9.5518 -151.378 -0.997646 178.549
lowerback -28.8551 -1.81361 -6.20683
upperback -3.21429 -1.28236 -0.543832
thorax 12.4677 -1.28176 2.3808
lowerneck -1.86735 0.147566 -4.80513
upperneck 6.94527 0.38065 19.3676
head 2.27806 1.14484 6.77281
rclavicle -5.26779e-015 1.55052e-014
rhumerus -37.439 -23.2611 -75.749
rradius 26.8168
rwrist 2.58039
rhand -7.44508 -51.7872
rfingers 7.12502
rthumb 18.4427 -440.933
lclavicle -5.26779e-015 1.55052e-014
lhumerus -31.1454 6.97409 81.2205
lradius 22.2781
lwrist -6.52868
lhand -21.0776 -11.6332
lfingers 7.12502
lthumb 5.29938 18.2805
rfemur -25.002 8.73703 17.2748
rtibia 6.30104
rfoot -18.9028 -5.69078
rtoes -30.5372
lfemur -27.0276 -10.3873 -18.1834
ltibia 8.03673
lfoot -7.81256 3.11431
ltoes -40.7865
122
root 9.51741 16.3309 9.5512 -151.362 -1.00875 178.58
lowerback -28.4016 -1.74106 -6.05836
upperback -3.52345 -1.31431 -0.631651
thorax 11.8668 -1.28642 2.195
lowerneck -1.87485 0.05886 -4.93083
upperneck 6.96551 0.269569 19.6478
head 2.29779 1.10777 6.88527
rclavicle -1.12313e-014 2.78299e-015
rhumerus -37.9618 -22.9131 -75.8801
rradius 27.0281
rwrist 2.35871
rhand -7.31 -51.7727
rfingers 7.12502
rthumb 18.5727 -440.906
lclavicle -1.12313e-014 2.78299e-015
lhumerus -31.5249 6.48864 81.1858
lradius 22.4878
lwrist -6.05059
lhand -20.7912 -11.7388
lfingers 7.12502
lthumb 5.57595 18.1678
rfemur -25.0428 8.68462 17.3366
rtibia 6.34351
rfoot -18.9059 -5.70488
rtoes -30.6688
lfemur -27.0502 -10.3708 -18.142
ltibia 8.04244
lfoot -7.77292 3.1189
ltoes -40.2656
